<svg width="195" height="40" viewBox="0 0 195 40" fill="none" xmlns="http://www.w3.org/2000/svg">
<path d="M56.792 21.304C56.792 19.96 57.056 18.768 57.584 17.728C58.128 16.688 58.864 15.888 59.792 15.328C60.72 14.768 61.752 14.488 62.888 14.488C63.752 14.488 64.576 14.68 65.36 15.064C66.144 15.432 66.768 15.928 67.232 16.552V10.24H70.64V28H67.232V26.032C66.816 26.688 66.232 27.216 65.48 27.616C64.728 28.016 63.856 28.216 62.864 28.216C61.744 28.216 60.72 27.928 59.792 27.352C58.864 26.776 58.128 25.968 57.584 24.928C57.056 23.872 56.792 22.664 56.792 21.304ZM67.256 21.352C67.256 20.536 67.096 19.84 66.776 19.264C66.456 18.672 66.024 18.224 65.48 17.92C64.936 17.6 64.352 17.44 63.728 17.44C63.104 17.44 62.528 17.592 62 17.896C61.472 18.2 61.04 18.648 60.704 19.24C60.384 19.816 60.224 20.504 60.224 21.304C60.224 22.104 60.384 22.808 60.704 23.416C61.04 24.008 61.472 24.464 62 24.784C62.544 25.104 63.12 25.264 63.728 25.264C64.352 25.264 64.936 25.112 65.48 24.808C66.024 24.488 66.456 24.04 66.776 23.464C67.096 22.872 67.256 22.168 67.256 21.352Z" fill="white"/>
<path d="M127.159 14.224C128.791 14.224 130.103 14.728 131.095 15.736C132.103 16.728 132.607 18.12 132.607 19.912V27.712H129.247V20.368C129.247 19.328 128.983 18.536 128.455 17.992C127.927 17.432 127.207 17.152 126.295 17.152C125.383 17.152 124.655 17.432 124.111 17.992C123.583 18.536 123.319 19.328 123.319 20.368V27.712H119.959V20.368C119.959 19.328 119.695 18.536 119.167 17.992C118.639 17.432 117.919 17.152 117.007 17.152C116.079 17.152 115.343 17.432 114.799 17.992C114.271 18.536 114.007 19.328 114.007 20.368V27.712H110.647V14.416H114.007V16.024C114.439 15.464 114.991 15.024 115.663 14.704C116.351 14.384 117.103 14.224 117.919 14.224C118.959 14.224 119.887 14.448 120.703 14.896C121.519 15.328 122.151 15.952 122.599 16.768C123.031 16 123.655 15.384 124.471 14.92C125.303 14.456 126.199 14.224 127.159 14.224Z" fill="white"/>
<path d="M141.7 27.928C140.42 27.928 139.268 27.648 138.244 27.088C137.22 26.512 136.412 25.704 135.82 24.664C135.244 23.624 134.956 22.424 134.956 21.064C134.956 19.704 135.252 18.504 135.844 17.464C136.452 16.424 137.276 15.624 138.316 15.064C139.356 14.488 140.516 14.2 141.796 14.2C143.076 14.2 144.236 14.488 145.276 15.064C146.316 15.624 147.132 16.424 147.724 17.464C148.332 18.504 148.636 19.704 148.636 21.064C148.636 22.424 148.324 23.624 147.7 24.664C147.092 25.704 146.26 26.512 145.204 27.088C144.164 27.648 142.996 27.928 141.7 27.928ZM141.7 25C142.308 25 142.876 24.856 143.404 24.568C143.948 24.264 144.38 23.816 144.7 23.224C145.02 22.632 145.18 21.912 145.18 21.064C145.18 19.8 144.844 18.832 144.172 18.16C143.516 17.472 142.708 17.128 141.748 17.128C140.788 17.128 139.98 17.472 139.324 18.16C138.684 18.832 138.364 19.8 138.364 21.064C138.364 22.328 138.676 23.304 139.3 23.992C139.94 24.664 140.74 25 141.7 25Z" fill="white"/>
<path d="M158.468 14.224C160.052 14.224 161.332 14.728 162.308 15.736C163.284 16.728 163.772 18.12 163.772 19.912V27.712H160.412V20.368C160.412 19.312 160.148 18.504 159.62 17.944C159.092 17.368 158.372 17.08 157.46 17.08C156.532 17.08 155.796 17.368 155.252 17.944C154.724 18.504 154.46 19.312 154.46 20.368V27.712H151.1V14.416H154.46V16.072C154.908 15.496 155.476 15.048 156.164 14.728C156.868 14.392 157.636 14.224 158.468 14.224Z" fill="white"/>
<path d="M179.327 20.776C179.327 21.256 179.295 21.688 179.231 22.072H169.511C169.591 23.032 169.928 23.784 170.52 24.328C171.112 24.872 171.839 25.144 172.703 25.144C173.951 25.144 174.839 24.608 175.368 23.536H178.992C178.608 24.816 177.872 25.872 176.784 26.704C175.696 27.52 174.359 27.928 172.775 27.928C171.495 27.928 170.344 27.648 169.32 27.088C168.312 26.512 167.519 25.704 166.943 24.664C166.383 23.624 166.104 22.424 166.104 21.064C166.104 19.688 166.383 18.48 166.943 17.44C167.503 16.4 168.288 15.6 169.296 15.04C170.304 14.48 171.463 14.2 172.775 14.2C174.039 14.2 175.168 14.472 176.16 15.016C177.168 15.56 177.944 16.336 178.488 17.344C179.048 18.336 179.327 19.48 179.327 20.776ZM175.848 19.816C175.832 18.952 175.519 18.264 174.911 17.752C174.303 17.224 173.56 16.96 172.68 16.96C171.848 16.96 171.143 17.216 170.567 17.728C170.007 18.224 169.663 18.92 169.535 19.816H175.848Z" fill="white"/>
<path d="M194.5 14.416L186.268 34H182.692L185.572 27.376L180.244 14.416H184.012L187.444 23.704L190.924 14.416H194.5Z" fill="white"/>
<path d="M86 20.848C86 21.328 85.968 21.76 85.904 22.144H76.184C76.264 23.104 76.6 23.856 77.192 24.4C77.784 24.944 78.512 25.216 79.376 25.216C80.624 25.216 81.512 24.68 82.04 23.608H85.664C85.28 24.888 84.544 25.944 83.456 26.776C82.368 27.592 81.032 28 79.448 28C78.168 28 77.016 27.72 75.992 27.16C74.984 26.584 74.192 25.776 73.616 24.736C73.056 23.696 72.776 22.496 72.776 21.136C72.776 19.76 73.056 18.552 73.616 17.512C74.176 16.472 74.96 15.672 75.968 15.112C76.976 14.552 78.136 14.272 79.448 14.272C80.712 14.272 81.84 14.544 82.832 15.088C83.84 15.632 84.616 16.408 85.16 17.416C85.72 18.408 86 19.552 86 20.848ZM82.52 19.888C82.504 19.024 82.192 18.336 81.584 17.824C80.976 17.296 80.232 17.032 79.352 17.032C78.52 17.032 77.816 17.288 77.24 17.8C76.68 18.296 76.336 18.992 76.208 19.888H82.52Z" fill="white"/>
<path d="M99.416 14.752L94 27.964H92.36H90.5L85.16 14.752H88.928L92.36 24.04L95.84 14.752H99.416Z" fill="white"/>
<path d="M34.1422 5.85781C30.3647 2.08031 25.3422 0 20 0C14.6578 0 9.63531 2.08031 5.85781 5.85781C2.08031 9.63531 0 14.6578 0 20C0 25.3422 2.08039 30.3646 5.85781 34.1422C9.63523 37.9198 14.6578 40 20 40C25.3422 40 30.3647 37.9197 34.1422 34.1422C37.9197 30.3647 40 25.3422 40 20C40 14.6578 37.9196 9.63539 34.1422 5.85781Z" fill="#33CC95"/>
<g clip-path="url(#clip0_35212_417)">
<path d="M20.5714 8V33.1429" stroke="white" stroke-width="2" stroke-linecap="round" stroke-linejoin="round"/>
<path d="M26.2857 12.5714H17.7143C16.6534 12.5714 15.636 12.9929 14.8859 13.743C14.1357 14.4931 13.7143 15.5106 13.7143 16.5714C13.7143 17.6323 14.1357 18.6497 14.8859 19.3999C15.636 20.15 16.6534 20.5714 17.7143 20.5714H23.4286C24.4894 20.5714 25.5069 20.9929 26.257 21.743C27.0072 22.4932 27.4286 23.5106 27.4286 24.5714C27.4286 25.6323 27.0072 26.6497 26.257 27.3999C25.5069 28.15 24.4894 28.5714 23.4286 28.5714H13.7143" stroke="white" stroke-width="2" stroke-linecap="round" stroke-linejoin="round"/>
</g>
<defs>
<clipPath id="clip0_35212_417">
<rect width="27.4286" height="27.4286" fill="white" transform="translate(6.85715 6.85714)"/>
</clipPath>
</defs>
</svg>
